<svg width="423" height="196" viewBox="0 0 423 196" fill="none" xmlns="http://www.w3.org/2000/svg">
<path d="M156 54.5L422.5 30L231.5 85.5L275.5 137.5L0 178.5L198.5 107L156 54.5Z" fill="#FFAA11"/>
<path d="M59 162.5L12 46.5H44.5L68.5 107.5L92 46.5H107L59 162.5Z" fill="white"/>
<path d="M249 162.5V46.5H280.5V146H311V162.5H249Z" fill="white"/>
<path d="M396 46.5H303V62H333V162.5H365V62H396V46.5Z" fill="white"/>
<path d="M174.869 46.8164C188.847 46.8164 201.031 50.5892 211.422 58.1348C225.895 68.7728 233.131 84.2969 233.131 104.707C233.131 121.53 227.379 135.384 215.875 146.27C204.618 156.66 190.764 161.855 174.312 161.855C159.84 161.855 147.223 157.712 136.461 149.424C122.483 138.538 115.494 123.385 115.494 103.965C115.494 87.0182 121.37 73.1641 133.121 62.4023C144.501 52.0117 158.417 46.8164 174.869 46.8164ZM174.869 156.475C180.559 156.475 185.322 155.238 189.156 152.764C199.052 146.455 204 130.127 204 103.779C204 92.6465 203.072 83.3073 201.217 75.7617C197.258 60.0521 188.29 52.1973 174.312 52.1973C170.107 52.1973 166.334 52.9395 162.994 54.4238C150.748 59.6191 144.625 76.3802 144.625 104.707C144.625 119.551 146.171 131.055 149.264 139.219C153.717 150.723 162.252 156.475 174.869 156.475Z" fill="white"/>
</svg>
